<?xml version="1.0" encoding="UTF-8" standalone="no"?>
<!-- Created with Inkscape (http://www.inkscape.org/) -->

<svg
   xmlns:dc="http://purl.org/dc/elements/1.1/"
   xmlns:cc="http://creativecommons.org/ns#"
   xmlns:rdf="http://www.w3.org/1999/02/22-rdf-syntax-ns#"
   xmlns:svg="http://www.w3.org/2000/svg"
   xmlns="http://www.w3.org/2000/svg"
   xmlns:sodipodi="http://sodipodi.sourceforge.net/DTD/sodipodi-0.dtd"
   xmlns:inkscape="http://www.inkscape.org/namespaces/inkscape"
   width="100mm"
   height="100mm"
   viewBox="0 0 354.33071 354.33071"
   id="svg5515"
   version="1.1"
   inkscape:version="0.91 r13725"
   sodipodi:docname="poweroff.svg">
  <defs
     id="defs5517" />
  <sodipodi:namedview
     id="base"
     pagecolor="#ffffff"
     bordercolor="#666666"
     borderopacity="1.0"
     inkscape:pageopacity="0.0"
     inkscape:pageshadow="2"
     inkscape:zoom="1.4"
     inkscape:cx="112.35108"
     inkscape:cy="172.87548"
     inkscape:document-units="px"
     inkscape:current-layer="layer1"
     showgrid="false"
     inkscape:window-width="1600"
     inkscape:window-height="813"
     inkscape:window-x="0"
     inkscape:window-y="25"
     inkscape:window-maximized="1" />
  <metadata
     id="metadata5520">
    <rdf:RDF>
      <cc:Work
         rdf:about="">
        <dc:format>image/svg+xml</dc:format>
        <dc:type
           rdf:resource="http://purl.org/dc/dcmitype/StillImage" />
        <dc:title></dc:title>
      </cc:Work>
    </rdf:RDF>
  </metadata>
  <g
     inkscape:label="Capa 1"
     inkscape:groupmode="layer"
     id="layer1"
     transform="translate(0,-698.03148)">
    <g
       id="g6088"
       transform="translate(6.8605678e-7,16.210423)">
      <path
         inkscape:connector-curvature="0"
         id="path6084"
         d="m 167.41268,994.92387 c -35.69644,-2.5631 -68.557778,-21.22156 -90.179488,-51.20358 -5.4715,-7.58712 -13.61436,-23.82307 -16.54904,-32.99697 -4.45447,-13.92476 -5.34903,-20.19617 -5.34903,-37.5 0,-17.81597 0.91284,-23.76502 5.98417,-38.99948 11.67264,-35.06501 39.270078,-63.20616 74.486468,-75.95397 l 6.96406,-2.52089 0,13.38341 0,13.38342 -6.96428,3.30699 c -19.84427,9.42305 -35.45739,24.7648 -45.531648,44.74027 -14.4053,28.56314 -12.9555,64.84403 3.68657,92.25578 14.242638,23.45956 35.885478,38.83016 63.492698,45.09206 10.143,2.3007 28.1931,2.3365 38.69785,0.077 19.40067,-4.1733 34.7087,-12.4961 48.80715,-26.53597 13.96348,-13.90547 22.5456,-29.71091 26.85898,-49.46542 1.81907,-8.33107 1.81907,-29.1949 0,-37.52597 -1.55678,-7.12977 -4.48333,-15.91247 -7.53839,-22.62299 -5.60031,-12.30123 -17.59288,-26.96905 -29.30021,-35.83635 -5.6025,-4.24342 -23.3314,-13.84911 -25.56083,-13.84911 -0.7357,0 -0.9336,-2.86302 -0.9336,-13.50594 l 0,-13.50595 4.10714,1.27212 c 31.28064,9.6887 57.75506,31.84991 72.67217,60.83245 17.97169,34.9173 18.31992,75.46669 0.9469,110.26447 -22.36406,44.79476 -68.57893,71.02052 -118.79764,67.41482 z"
         style="opacity:1;fill:#000000;fill-opacity:1;fill-rule:nonzero;stroke:none;stroke-width:40;stroke-linecap:round;stroke-linejoin:miter;stroke-miterlimit:4;stroke-dasharray:none;stroke-opacity:1" />
      <rect
         y="722.71936"
         x="161.96428"
         height="91.964287"
         width="29.285715"
         id="rect6086"
         style="opacity:1;fill:#000000;fill-opacity:1;fill-rule:nonzero;stroke:none;stroke-width:40;stroke-linecap:round;stroke-linejoin:miter;stroke-miterlimit:4;stroke-dasharray:none;stroke-opacity:1" />
    </g>
  </g>
</svg>
