<?xml version="1.0" encoding="UTF-8" standalone="no"?>
<!-- Created with Inkscape (http://www.inkscape.org/) -->

<svg
   xmlns:dc="http://purl.org/dc/elements/1.1/"
   xmlns:cc="http://creativecommons.org/ns#"
   xmlns:rdf="http://www.w3.org/1999/02/22-rdf-syntax-ns#"
   xmlns:svg="http://www.w3.org/2000/svg"
   xmlns="http://www.w3.org/2000/svg"
   xmlns:sodipodi="http://sodipodi.sourceforge.net/DTD/sodipodi-0.dtd"
   xmlns:inkscape="http://www.inkscape.org/namespaces/inkscape"
   width="100mm"
   height="100mm"
   viewBox="0 0 354.33071 354.33071"
   id="svg2"
   version="1.1"
   inkscape:version="0.91 r13725"
   sodipodi:docname="tools.svg">
  <defs
     id="defs4" />
  <sodipodi:namedview
     id="base"
     pagecolor="#ffffff"
     bordercolor="#666666"
     borderopacity="1.0"
     inkscape:pageopacity="0.0"
     inkscape:pageshadow="2"
     inkscape:zoom="1.4"
     inkscape:cx="141.03713"
     inkscape:cy="145.71589"
     inkscape:document-units="px"
     inkscape:current-layer="layer1"
     showgrid="false"
     inkscape:window-width="1600"
     inkscape:window-height="813"
     inkscape:window-x="0"
     inkscape:window-y="25"
     inkscape:window-maximized="1" />
  <metadata
     id="metadata7">
    <rdf:RDF>
      <cc:Work
         rdf:about="">
        <dc:format>image/svg+xml</dc:format>
        <dc:type
           rdf:resource="http://purl.org/dc/dcmitype/StillImage" />
        <dc:title></dc:title>
      </cc:Work>
    </rdf:RDF>
  </metadata>
  <g
     inkscape:label="Capa 1"
     inkscape:groupmode="layer"
     id="layer1"
     transform="translate(0,-698.0315)">
    <ellipse
       style="opacity:1;fill:#000000;fill-opacity:1;fill-rule:nonzero;stroke:none;stroke-width:40;stroke-linecap:round;stroke-linejoin:miter;stroke-miterlimit:4;stroke-dasharray:none;stroke-opacity:1"
       id="path4138-3"
       cx="173.57143"
       cy="795.21936"
       r="25" />
    <g
       id="g4192"
       transform="matrix(0.99655214,-1.1484576,1.1484576,0.99655214,-820.99949,166.9058)"
       style="fill:#808080" />
    <g
       id="g4241"
       transform="translate(1.3959468,-0.21079596)">
      <g
         style="fill:#000000"
         id="g4175"
         transform="matrix(0.43075968,-0.49642082,0.49642082,0.43075968,-301.26922,629.21065)">
        <rect
           y="770.2193"
           x="-77.142853"
           height="50"
           width="250"
           id="rect4136"
           style="opacity:1;fill:#000000;fill-opacity:1;fill-rule:nonzero;stroke:none;stroke-width:40;stroke-linecap:round;stroke-linejoin:miter;stroke-miterlimit:4;stroke-dasharray:none;stroke-opacity:1" />
        <circle
           r="25"
           cy="795.21936"
           cx="-75"
           id="path4138"
           style="opacity:1;fill:#000000;fill-opacity:1;fill-rule:nonzero;stroke:none;stroke-width:40;stroke-linecap:round;stroke-linejoin:miter;stroke-miterlimit:4;stroke-dasharray:none;stroke-opacity:1" />
        <circle
           r="25"
           cy="795.21936"
           cx="168.57143"
           id="path4138-6"
           style="opacity:1;fill:#000000;fill-opacity:1;fill-rule:nonzero;stroke:none;stroke-width:40;stroke-linecap:round;stroke-linejoin:miter;stroke-miterlimit:4;stroke-dasharray:none;stroke-opacity:1" />
      </g>
      <g
         style="fill:#000000"
         id="g4186"
         transform="matrix(0.99655214,-1.1484576,1.1484576,0.99655214,-818.67157,164.22303)">
        <circle
           r="7.4485993"
           cy="801.21429"
           cx="185.99306"
           id="path4182"
           style="opacity:1;fill:#000000;fill-opacity:1;fill-rule:nonzero;stroke:none;stroke-width:40;stroke-linecap:round;stroke-linejoin:miter;stroke-miterlimit:4;stroke-dasharray:none;stroke-opacity:1" />
        <rect
           y="793.76575"
           x="185.86807"
           height="14.644661"
           width="14.644661"
           id="rect4184"
           style="opacity:1;fill:#000000;fill-opacity:1;fill-rule:nonzero;stroke:none;stroke-width:40;stroke-linecap:round;stroke-linejoin:miter;stroke-miterlimit:4;stroke-dasharray:none;stroke-opacity:1" />
      </g>
      <path
         style="opacity:1;fill:#000000;fill-opacity:1;fill-rule:nonzero;stroke:none;stroke-width:40;stroke-linecap:round;stroke-linejoin:miter;stroke-miterlimit:4;stroke-dasharray:none;stroke-opacity:1"
         d="m 79.159708,802.25332 c 0.0069,-1.21534 -0.06992,-2.57905 -0.170619,-3.03046 l -0.18309,-0.82075 50.850591,0 50.85058,0 -0.3757,1.07329 c -0.26364,0.75314 -0.33728,1.65708 -0.24688,3.03046 l 0.12882,1.95717 -50.43308,0 -50.433093,0 0.01247,-2.20971 z"
         id="path4190"
         inkscape:connector-curvature="0"
         transform="matrix(0.99655214,-1.1484576,1.1484576,0.99655214,-820.99949,166.9058)" />
      <path
         inkscape:connector-curvature="0"
         id="path4229"
         d="m 129.87749,858.03851 c -8.6819,-10.17592 -15.98917,-18.37566 -16.23838,-18.22164 -0.24921,0.15402 -2.73637,0.72265 -5.52701,1.26361 -6.19704,1.2013 -16.179911,1.30941 -22.270777,0.24118 -8.273139,-1.45096 -17.67991,-5.38243 -25.020911,-10.45726 -3.785495,-2.61692 -11.340015,-10.63689 -15.92952,-16.911 -1.958473,-2.67735 -5.699535,-10.29832 -6.673653,-13.59501 -0.253893,-0.85925 0.77423,-2.0142 5.732553,-6.43972 3.323063,-2.96599 6.13599,-5.3927 6.250948,-5.3927 0.114959,0 1.232787,1.76146 2.484063,3.91434 3.030343,5.21387 6.230257,9.06125 10.08757,12.12867 13.529653,10.75909 30.67308,12.48721 45.857487,4.62259 7.31166,-3.787 13.00829,-9.50544 17.10282,-17.16828 3.24661,-6.07599 4.19701,-9.82571 4.47085,-17.63945 0.33724,-9.62271 -1.10189,-15.68363 -5.48466,-23.09875 -1.66179,-2.81154 -9.21776,-10.92841 -12.39774,-13.31805 l -1.61204,-1.21139 3.37981,-2.81845 c 1.85888,-1.55016 4.9832,-4.20262 6.94292,-5.89438 l 3.56313,-3.07592 5.78078,3.84811 c 14.40113,9.58642 23.54822,22.96704 27.00791,39.50791 2.28655,10.93203 0.78416,25.07539 -3.83376,36.09083 l -1.4729,3.51341 1.18055,1.28481 c 0.64931,0.70666 8.38924,9.75353 17.19985,20.10416 l 16.01928,18.81934 -0.91641,1.16394 c -3.63405,4.61559 -16.08236,18.52354 -16.5795,18.52354 -0.33862,0 -1.19565,0.45621 -1.90452,1.01381 -1.16023,0.91264 -1.55176,0.95744 -3.92307,0.44888 -5.31691,-1.14027 -11.5584,0.88559 -15.38445,4.99347 l -2.10595,2.26108 -15.78527,-18.50168 z"
         style="opacity:1;fill:#000000;fill-opacity:1;fill-rule:nonzero;stroke:none;stroke-width:40;stroke-linecap:round;stroke-linejoin:miter;stroke-miterlimit:4;stroke-dasharray:none;stroke-opacity:1" />
      <path
         inkscape:connector-curvature="0"
         id="path4231"
         d="m 282.50972,1025.1332 c -4.42142,-1.1907 -7.72454,-3.1996 -11.4771,-6.98 -2.7683,-2.7888 -88.86138,-103.52688 -93.31205,-109.18498 l -0.99316,-1.26261 3.06607,-3.45836 c 5.34121,-6.02461 6.92436,-11.15395 5.36353,-17.3776 -0.76895,-3.06611 -0.77304,-3.46064 -0.0467,-4.49767 0.43791,-0.62521 0.79621,-1.45872 0.79621,-1.85223 0,-0.39352 1.20537,-2.1044 2.6786,-3.80196 1.47323,-1.69756 5.09573,-5.86557 8.04999,-9.26224 l 5.37138,-6.17577 52.18036,61.14737 c 28.69919,33.63105 53.22812,62.5943 54.50873,64.36278 10.17419,14.05027 2.88779,33.95867 -14.04276,38.36857 -3.56775,0.9292 -8.638,0.9187 -12.14312,-0.025 l 0,0 z"
         style="opacity:1;fill:#000000;fill-opacity:1;fill-rule:nonzero;stroke:none;stroke-width:40;stroke-linecap:round;stroke-linejoin:miter;stroke-miterlimit:4;stroke-dasharray:none;stroke-opacity:1" />
    </g>
  </g>
</svg>
