<?xml version="1.0" encoding="UTF-8" standalone="no"?>
<!-- Created with Inkscape (http://www.inkscape.org/) -->

<svg
   xmlns:dc="http://purl.org/dc/elements/1.1/"
   xmlns:cc="http://creativecommons.org/ns#"
   xmlns:rdf="http://www.w3.org/1999/02/22-rdf-syntax-ns#"
   xmlns:svg="http://www.w3.org/2000/svg"
   xmlns="http://www.w3.org/2000/svg"
   xmlns:sodipodi="http://sodipodi.sourceforge.net/DTD/sodipodi-0.dtd"
   xmlns:inkscape="http://www.inkscape.org/namespaces/inkscape"
   width="100mm"
   height="100mm"
   viewBox="0 0 354.33071 354.33071"
   id="svg2"
   version="1.1"
   inkscape:version="0.91 r13725"
   sodipodi:docname="volume-55.svg">
  <defs
     id="defs4" />
  <sodipodi:namedview
     id="base"
     pagecolor="#ffffff"
     bordercolor="#666666"
     borderopacity="1.0"
     inkscape:pageopacity="0.0"
     inkscape:pageshadow="2"
     inkscape:zoom="1.4"
     inkscape:cx="168.54726"
     inkscape:cy="190.98366"
     inkscape:document-units="px"
     inkscape:current-layer="layer1"
     showgrid="false"
     inkscape:window-width="1600"
     inkscape:window-height="806"
     inkscape:window-x="0"
     inkscape:window-y="32"
     inkscape:window-maximized="1" />
  <metadata
     id="metadata7">
    <rdf:RDF>
      <cc:Work
         rdf:about="">
        <dc:format>image/svg+xml</dc:format>
        <dc:type
           rdf:resource="http://purl.org/dc/dcmitype/StillImage" />
        <dc:title></dc:title>
      </cc:Work>
    </rdf:RDF>
  </metadata>
  <g
     inkscape:label="Capa 1"
     inkscape:groupmode="layer"
     id="layer1"
     transform="translate(0,-698.0315)">
    <g
       id="g4233"
       transform="translate(3.0425709,0.80228469)">
      <circle
         r="27.8353"
         cy="879.15979"
         cx="77.120995"
         id="path4136"
         style="opacity:1;fill:#000000;fill-opacity:1;fill-rule:nonzero;stroke:none;stroke-width:24.79999924;stroke-linecap:round;stroke-linejoin:round;stroke-miterlimit:4;stroke-dasharray:none;stroke-opacity:1" />
      <path
         inkscape:connector-curvature="0"
         id="path4211"
         d="m 229.3645,1012.272 c -0.81685,-1.275 -3.77243,-6.1473 -6.56795,-10.8272 l -5.08275,-8.50899 10.05236,-10.52868 c 17.13394,-17.94585 29.12107,-38.07214 37.36991,-62.74373 5.46486,-16.34492 6.37687,-24.39302 5.79322,-51.12217 -0.44829,-20.52949 -0.7089,-23.08615 -3.19807,-31.37452 -8.59544,-28.6208 -20.97468,-50.70333 -39.15007,-69.83728 l -7.17406,-7.55243 4.32747,-7.33753 c 2.3801,-4.03564 5.88191,-9.79073 7.78178,-12.78909 l 3.45431,-5.45155 6.57094,6.46243 c 23.63964,23.24931 42.2504,56.52107 50.4014,90.10606 5.36271,22.09628 5.50991,56.63201 0.34323,80.53233 -5.68152,26.28191 -20.33853,56.71933 -37.04052,76.92011 -6.03924,7.30429 -17.95499,19.59454 -22.65719,23.36924 l -3.73883,3.0013 -1.48518,-2.3183 z"
         style="opacity:1;fill:#000000;fill-opacity:1;fill-rule:nonzero;stroke:#000000;stroke-width:1.76904833;stroke-linecap:round;stroke-linejoin:round;stroke-miterlimit:4;stroke-dasharray:none;stroke-opacity:1" />
      <path
         inkscape:connector-curvature="0"
         id="path4213"
         d="m 188.31435,975.33686 c -2.27839,-3.56375 -5.33467,-8.52166 -6.79174,-11.01755 l -2.6492,-4.53797 5.52671,-6.50121 c 14.78419,-17.39111 25.27024,-38.77858 28.72454,-58.58699 0.78279,-4.48883 1.42325,-13.42842 1.42325,-19.86576 0,-30.58656 -10.53973,-58.99251 -29.40745,-79.25698 l -4.03981,-4.33887 7.1049,-11.50001 c 3.9077,-6.325 7.30613,-11.93198 7.55207,-12.45994 0.5635,-1.20971 13.61702,12.37484 19.776,20.58051 31.10008,41.43495 36.47311,101.91954 13.17997,148.36753 -4.08276,8.14127 -11.18535,19.24777 -16.88151,26.39817 -4.64178,5.82672 -17.57958,19.19864 -18.57544,19.19864 -0.43986,0 -2.66389,-2.91583 -4.94229,-6.47957 z"
         style="opacity:1;fill:#000000;fill-opacity:1;fill-rule:nonzero;stroke:#000000;stroke-width:1.6798811;stroke-linecap:round;stroke-linejoin:round;stroke-miterlimit:4;stroke-dasharray:none;stroke-opacity:1" />
      <path
         inkscape:connector-curvature="0"
         id="path4215"
         d="M 151.39046,956.31733 C 145.02041,946.23032 140.0677,937.9968 140.0677,937.4941 c 0,-0.33025 1.99936,-3.25927 4.44303,-6.50893 5.2432,-6.97257 12.97287,-21.99851 15.45751,-30.04833 2.49485,-8.08287 2.50614,-38.37642 0.0177,-47.5832 -2.13014,-7.88124 -9.11674,-22.13137 -13.87541,-28.30077 -1.99983,-2.5927 -4.01313,-5.21485 -4.47398,-5.82699 -0.53799,-0.71459 1.67611,-5.23032 6.18528,-12.61507 3.86275,-6.32614 7.19744,-11.71591 7.41039,-11.97728 0.50633,-0.62142 4.90419,4.59053 10.96153,12.99064 9.04275,12.54017 16.33312,29.32541 19.53055,44.96684 1.89833,9.28639 1.98021,33.92576 0.14651,44.08527 -3.4147,18.91889 -15.22136,42.71765 -28.15536,56.75291 l -4.83537,5.24706 -1.48966,-2.35892 z"
         style="opacity:1;fill:#000000;fill-opacity:1;fill-rule:nonzero;stroke:#000000;stroke-width:1.68476975;stroke-linecap:round;stroke-linejoin:round;stroke-miterlimit:4;stroke-dasharray:none;stroke-opacity:1" />
      <path
         inkscape:connector-curvature="0"
         id="path4217"
         d="m 123.03615,926.60411 c -0.93338,-1.31565 -4.4892,-7.01955 -7.90181,-12.67531 l -6.20475,-10.28323 3.90126,-4.56647 c 5.87833,-6.88065 7.39448,-10.9058 7.40705,-19.66452 0.0126,-8.80463 -1.87314,-13.64685 -7.9608,-20.44155 l -3.89669,-4.34926 8.33464,-13.67565 c 4.58405,-7.5216 8.62441,-13.68669 8.97858,-13.70018 1.1601,-0.0442 6.64773,8.08715 10.68302,15.8297 5.92625,11.37074 7.47346,18.44328 7.47346,34.1623 0,15.05146 -1.50971,22.55031 -6.56989,32.63305 -2.86429,5.70727 -11.42169,19.12322 -12.19781,19.12322 -0.19205,0 -1.11287,-1.07644 -2.04626,-2.3921 z"
         style="opacity:1;fill:#000000;fill-opacity:1;fill-rule:nonzero;stroke:#000000;stroke-width:1.52224302;stroke-linecap:round;stroke-linejoin:round;stroke-miterlimit:4;stroke-dasharray:none;stroke-opacity:1" />
    </g>
  </g>
</svg>
